<svg width="88" height="88" viewBox="0 0 88 88" fill="none" xmlns="http://www.w3.org/2000/svg">
<path d="M88 44C88 57.97 81.488 70.422 71.3314 78.4813C71.258 78.54 71.192 78.5913 71.126 78.6427C64.1373 84.1207 55.4474 87.538 45.9874 87.9487C45.3274 87.9853 44.6673 88 44 88C43.8387 88 43.6774 88 43.5161 87.9927C33.4767 87.89 24.2367 84.414 16.8813 78.65C16.808 78.5913 16.7274 78.5253 16.6467 78.4667C6.50472 70.4073 0 57.9627 0 44C0 19.6973 19.6973 0 44 0C68.3027 0 88 19.6973 88 44Z" fill="#FBE5F4"/>
<path d="M56.9121 60.6266C44.1121 56.8933 34.2454 59.0733 30.9121 60.6266L33.2454 68.6266L54.9121 67.96L56.9121 60.6266Z" fill="#550059"/>
<path d="M45.8057 83.2868C54.4057 82.9134 62.3057 79.8068 68.659 74.8267C64.579 71.6801 59.8657 69.3201 54.739 67.9667H54.7323C53.3123 67.5934 51.8657 67.2934 50.3857 67.0801C50.0324 67.0267 49.679 66.9801 49.3257 66.9401C47.799 66.7601 46.239 66.6667 44.6657 66.6667H43.3324C41.7524 66.6667 40.199 66.7601 38.6724 66.9401C38.2657 66.9868 37.8591 67.0401 37.4524 67.1001C35.9657 67.3267 34.499 67.6334 33.0723 68.0201H33.0657C28.019 69.3801 23.3724 71.7201 19.3457 74.8334C26.0324 80.0734 34.4324 83.2334 43.5591 83.3268L45.8057 83.2868Z" fill="#79007F"/>
<path d="M59.9993 49.3266C62.946 49.3266 65.3327 46.9399 65.3327 43.9932C65.3327 41.0466 62.946 38.6599 59.9993 38.6599C57.0527 38.6599 54.666 41.0466 54.666 43.9932C54.666 46.9399 57.0527 49.3266 59.9993 49.3266Z" fill="#D67B32"/>
<path d="M27.9993 49.3266C30.946 49.3266 33.3327 46.9399 33.3327 43.9932C33.3327 41.0466 30.946 38.6599 27.9993 38.6599C25.0527 38.6599 22.666 41.0466 22.666 43.9932C22.666 46.9399 25.0527 49.3266 27.9993 49.3266Z" fill="#D67B32"/>
<path d="M43.9993 55.9934C46.946 55.9934 49.3327 58.3801 49.3327 61.3267V66.6601C49.3327 69.6067 46.946 71.9934 43.9993 71.9934C41.0527 71.9934 38.666 69.6067 38.666 66.6601V61.3267C38.666 58.3801 41.0527 55.9934 43.9993 55.9934Z" fill="#D67B32"/>
<path d="M43.9668 16.6267C52.8001 16.6267 59.9668 23.7934 59.9668 32.6267V45.96C59.9668 54.7934 52.8001 61.96 43.9668 61.96C35.1335 61.96 27.9668 54.7934 27.9668 45.96V32.6267C27.9668 23.7934 35.1335 16.6267 43.9668 16.6267Z" fill="#ED9650"/>
<path d="M39.1003 49.96H49.3936C50.507 49.96 51.2336 51.1666 50.7736 52.2266C49.6536 54.82 47.1536 56.6266 44.2469 56.6266C41.3402 56.6266 38.8336 54.82 37.7203 52.2266C37.2603 51.1666 37.9869 49.96 39.1003 49.96Z" fill="#8F005D"/>
<path d="M43.832 47.3267V39.3267" stroke="#401D0C" stroke-width="0.5"/>
<path d="M35.3327 43.9932C36.806 43.9932 37.9993 42.7999 37.9993 41.3266C37.9993 39.8532 36.806 38.6599 35.3327 38.6599C33.8593 38.6599 32.666 39.8532 32.666 41.3266C32.666 42.7999 33.8593 43.9932 35.3327 43.9932Z" fill="#401D0C"/>
<path d="M61.9128 50.6265C62.8332 50.6265 63.5794 49.8804 63.5794 48.9599C63.5794 48.0394 62.8332 47.2932 61.9128 47.2932C60.9923 47.2932 60.2461 48.0394 60.2461 48.9599C60.2461 49.8804 60.9923 50.6265 61.9128 50.6265Z" fill="#401D0C"/>
<path d="M25.9128 50.6265C26.8332 50.6265 27.5794 49.8804 27.5794 48.9599C27.5794 48.0394 26.8332 47.2932 25.9128 47.2932C24.9923 47.2932 24.2461 48.0394 24.2461 48.9599C24.2461 49.8804 24.9923 50.6265 25.9128 50.6265Z" fill="#401D0C"/>
<path d="M52.6667 43.9932C54.14 43.9932 55.3333 42.7999 55.3333 41.3266C55.3333 39.8532 54.14 38.6599 52.6667 38.6599C51.1933 38.6599 50 39.8532 50 41.3266C50 42.7999 51.1933 43.9932 52.6667 43.9932Z" fill="#401D0C"/>
<path d="M44 38.6599C45.1067 38.6599 46 39.5532 46 40.6599V45.9932C46 47.0999 45.1067 47.9932 44 47.9932C42.8933 47.9932 42 47.0999 42 45.9932V40.6599C42 39.5532 42.8933 38.6599 44 38.6599Z" fill="#DC7E33"/>
<path d="M56.8324 36.6667C56.639 37.38 55.9124 37.8 55.1991 37.6067L52.6257 36.9133C51.9124 36.72 51.4924 35.9933 51.6857 35.28C51.879 34.5667 52.6057 34.1467 53.319 34.34L55.8924 35.0333C56.6058 35.2267 57.0257 35.9533 56.8324 36.6667Z" fill="#401D0C"/>
<path d="M36.8319 35.2801C37.0252 35.9934 36.5986 36.7201 35.892 36.9134L33.3186 37.6067C32.6052 37.8001 31.8786 37.3734 31.6853 36.6667C31.4919 35.9534 31.9186 35.2267 32.6253 35.0334L35.1986 34.3401C35.9119 34.1467 36.6386 34.5734 36.8319 35.2801Z" fill="#401D0C"/>
<path d="M31.5059 20.1667C34.1393 13.9 41.3593 10.9533 47.626 13.5867L65.1593 20.9533C65.9459 21.28 66.3126 22.1867 65.9792 22.9667C63.3459 29.2333 56.126 32.18 49.8593 29.5467L32.3259 22.18C31.5393 21.8533 31.1726 20.9467 31.5059 20.1667Z" fill="#4D0010"/>
<path d="M34.1991 19.7866C39.8924 14.0933 49.1191 14.0933 54.8058 19.7866L59.9391 24.9199C60.6524 25.6333 60.6524 26.7866 59.9391 27.4933C54.2457 33.1866 45.019 33.1866 39.3324 27.4933L34.1991 22.3599C33.4857 21.6466 33.4857 20.4933 34.1991 19.7866Z" fill="#CD3D00"/>
<path d="M33.32 18.7668C38.08 14.0068 45.8001 14.0068 50.5601 18.7668L54.8534 23.0601C55.4467 23.6534 55.4467 24.6201 54.8534 25.2134C50.0934 29.9734 42.3734 29.9734 37.6134 25.2134L33.32 20.9201C32.7267 20.3268 32.7267 19.3601 33.32 18.7668Z" fill="#4D0010"/>
<path d="M41.7528 14.9601C43.6395 21.4934 39.8795 28.3201 33.3462 30.2067L28.2395 31.6867C27.4261 31.9201 26.5661 31.4534 26.3328 30.6334C24.4461 24.1001 28.2061 17.2734 34.7395 15.3867L39.8462 13.9067C40.6595 13.6734 41.5195 14.1401 41.7528 14.9601Z" fill="#4D0010"/>
<path d="M43.5595 83.3266C34.4328 83.2333 26.0328 80.0733 19.3461 74.8333C19.2794 74.78 19.2061 74.72 19.1328 74.6666C21.8261 72.1866 25.5461 69.2266 28.9128 68.6333C33.4461 67.8333 30.2461 64.3 30.7594 60.6333C30.8194 60.6533 30.8728 60.6666 30.9328 60.6933C34.7528 61.9266 35.8461 65.1466 37.4528 67.1C37.8861 67.64 38.3595 68.08 38.9395 68.36H38.9461C39.0061 68.3933 39.0661 68.42 39.1328 68.4466C39.3261 68.5333 39.5328 68.5933 39.7594 68.6333L40.2262 70.4333L43.5595 83.3266Z" fill="#F7A8FA"/>
<path d="M68.8466 74.68C68.7799 74.7333 68.7199 74.78 68.6599 74.8266C62.3066 79.8066 54.4066 82.9133 45.8066 83.2866L49.0933 68.6333C49.3199 68.5066 49.5133 68.3333 49.7 68.12C49.9466 67.8333 50.1666 67.48 50.3866 67.08C51.42 65.22 52.5399 62.3533 56.8599 60.82C57.0399 60.7533 57.2333 60.6933 57.4266 60.6333C57.7599 63.3 55.3599 66.6333 57.7599 67.9666C60.3133 69.3866 64.5533 70.8 68.8466 74.68Z" fill="#F7A8FA"/>
</svg>
